<svg
  xmlns="http://www.w3.org/2000/svg"
  viewBox="0 0 20 20"
  fill="currentColor"
>
  <path
    fill-rule="evenodd"
    clip-rule="evenodd"
    d="M10 0C4.478 0 0 4.589 0 10.253c0 4.53 2.865 8.374 6.839 9.729.5.095.684-.217.684-.482 0-.237-.009-.868-.013-1.703-2.782.607-3.369-1.375-3.369-1.375-.454-1.172-1.11-1.484-1.11-1.484-.907-.634.069-.621.069-.621 1.003.071 1.53 1.06 1.53 1.06.892 1.554 2.341 1.105 2.912.844.091-.654.35-1.105.636-1.36-2.22-.26-4.555-1.14-4.555-5.068 0-1.12.387-2.036 1.02-2.753-.102-.26-.442-1.31.097-2.733 0 0 .837-.276 2.746 1.05A9.384 9.384 0 0 1 10 5.76a9.38 9.38 0 0 1 2.506.34c1.91-1.326 2.745-1.05 2.745-1.05.541 1.423.201 2.473.099 2.733.634.717 1.02 1.633 1.02 2.753 0 3.94-2.338 4.805-4.566 5.062.359.312.678.928.678 1.872 0 1.351-.012 2.44-.012 2.772 0 .268.182.58.688.481C17.138 18.626 20 14.782 20 10.253 20 4.589 15.523 0 10 0z"
  />
</svg>
