<svg
  viewBox="0 0 232.21 218.21"
  xmlns="http://www.w3.org/2000/svg"
  fill="currentColor"

>
  <path d="M92.58,218.21h-.05s.03-.01.04-.01h.01Z"/>
  <path d="M92.53,218.21s.03-.01.04-.01h.01s-.05.01-.05.01Z"/>
  <path d="M73.18,215.16s-.05-.01-.05-.01c.02,0,.03,0,.05.01Z"/>
  <path d="M92.59,218.21s-.05,0-.05,0c.02,0,.03,0,.05,0Z"/>
  <path d="M146.42,110.14c-.11-.1-.23-.19-.37-.27h0c.14.07.27.17.37.27Z"/>
  <path d="M137.33,96.56c0,.38.09.71.47.9-.16-.3-.32-.6-.47-.9Z"/>
  <path d="M166.02,134.86c.09.01.19.02.28.03h.03c.36-.18.76-.34,1.29-.51-.58-.06-1.17-.1-1.6.48Z"/>
  <path d="M232,179.17c-6.34-2.12-12.04-5.2-17.43-8.78-.24-.15-.47-.3-.7-.46-12.28-8.26-23.02-18.95-36.24-26.29-5.27-2.48-16.56-6.23-11.33-8.75-.09-.01-.19-.02-.28-.03.43-.58,1.02-.54,1.6-.48h.02c1.03-.32,2.41-.61,4.17-.87,9-7.05-.8-15.29-11.41-7.52-10.64-3.28-16.94-23.57-25.08-32.43-5.18-7.66-14.73,7.5-26.09,5.31-38.48-10.86,16.52,28.28-21.45,31.02-6.92-23.07-14.61-49.55-5.2-72.89,10.97,6.78,19.39,20.59,30.68,25.19,16.4-20.5-19.31-44.05-.61-39.39,8.53.9,16.17,8.6,24.15,9.72,3.34-25.13-18.69-40.29-39.3-37.21,22.07-29.6-25.56-10.21-25.99,7.34-5.75-28.65-67.43-5.11-34.91.04.62.65,11.79,3.71,4.81,7.05-20.4-.27-39.05,50.67-19.48,49.82,5.53-8.47,28.5-30.16,21.8-10.99h0c.02.64-.09,1.24-.66,1.78.15,5,.44,8.97.86,12.03.84.83.82,1.92.76,3.03-.11-.13-.22-.27-.31-.41,2.58,12.62,8.81,3.35,19.84-11.9-3.42,20.92-1.27,44.93-.01,64.7-13.76-.54-25.77,11.78-37.88,22.04h-.01c-.38.49-.86.9-1.41,1.24,0-.01-.01-.03-.01-.04-5.96,4.96-11.96,9.28-18.21,11.17-53.76,41.29,234.21,75.11,225.31,6.96Z"/>
  <path d="M137.8,97.46c-.38-.19-.47-.52-.47-.9.15.3.31.6.47.9Z"/>
  <path d="M132.2,103.67c5.24,7.01,8.35,15.38,13.78,22.2-8.09-5.23-12.03-13.04-13.78-22.2Z"/>
  <path d="M168.08,134.4c-.48.62-1.12.55-1.75.49h-.03c-.09-.01-.19-.02-.28-.03.43-.58,1.02-.54,1.6-.48h.02c.15.01.3.02.44.02Z"/>
  <path d="M96.39,130.26c.04-.07.08-.15.12-.22-.04.07-.08.15-.12.22Z"/>
</svg>
