<?xml version="1.0" encoding="UTF-8"?>
<svg id="a" data-name="Layer_2" xmlns="http://www.w3.org/2000/svg" viewBox="0 0 256 256">
  <path d="M253.25,109.05l-26.8-72.15c-2.55-6.27-12.25-13.07-19.02-13.5H51.16c-10.71.56-20.02,7.49-23.62,17.58L2.25,111.6c-2.73,8.89.1,18.57,7.19,24.6l106.14,91.42c8.35,6.77,20.34,6.62,28.52-.35l102.23-90.06c7.73-7.15,10.46-18.23,6.92-28.17ZM220.41,105.8l-67.15,43.31h43.15l-60.74,53.81c-4.16,2.76-9.12,3.42-14.29.34l-62.1-54.11,96.4-58.59H31.51l13.63-36.9c2.25-5.05,8.05-9.21,13.57-9.21h137.93c6.27,0,11.9,3.87,14.15,9.73l13.65,38.44c1.85,4.81.18,10.25-4.05,13.2Z" style="fill: #e4e4e4;"/>
</svg>