<?xml version="1.0" encoding="UTF-8"?>
<svg xmlns="http://www.w3.org/2000/svg" version="1.1" viewBox="0 0 500 500">
  <defs>
    <style>
      .cls-1 {
        fill: #60479c;
      }

      .cls-2 {
        fill: #fff;
      }

      .cls-3 {
        fill: #181148;
      }

      .cls-4 {
        fill: #3b2d7a;
      }

      .cls-5 {
        fill: #d1d3d4;
      }
    </style>
  </defs>
  <!-- Generator: Adobe Illustrator 28.6.0, SVG Export Plug-In . SVG Version: 1.2.0 Build 709)  -->
  <g>
    <g id="Layer_1">
      <g>
        <polygon class="cls-4" points="481.78 56.59 481.78 447.01 442.01 479.2 393.34 439.81 393.34 397.91 412.71 382.26 412.71 114.66 350.85 114.66 317.13 87.39 249.97 141.92 182.53 87.39 148.81 114.66 87.29 114.66 87.29 382.48 106.66 398.21 106.66 439.81 57.99 479.2 18.15 447.01 18.15 56.59 102.18 56.59 146.43 20.8 249.97 104.59 353.5 20.8 397.76 56.59 481.78 56.59"/>
        <path class="cls-4" d="M347.11,122l-29.98-24.25-67.17,54.61-67.44-54.61-29.98,24.25h-56.22v257.46l10.33,8.38,9.11,7.35,9.04,7.28v-242.32l21.35-17.27h.27l40.38,32.71,48.06,38.88,3.94-3.23,11.15-9.19,10.94,9.04,4.15,3.38,48.06-38.88,40.38-32.71h.34l21.28,17.27v242.1l9.11-7.35,9.11-7.42,10.26-8.31V122h-56.49Z"/>
        <path class="cls-4" d="M405.3,41.89L353.5,0l-103.53,83.79L146.43,0l-51.8,41.89H0v411.22l.27.22,57.72,46.67,66.83-54.09v-33l43.51-35.21v-157.21l13.94-10.95h.27l57.38,46.38,10.06-8.08,9.79,8.08,57.38-46.38h.34l13.87,10.95v157.21l43.51,35.21.27-.22v33.22l66.89,54.09,57.65-46.67.34-.22V41.89h-94.7ZM490.89,450.02l-48.88,39.54-57.78-46.67v-47.99l-9.11,7.35-.27.22-34.4-27.86v-160.15l-19.31-15.29h-7.48l-2.92,2.13-50.92,41.16-9.72-8.16-10.2,8.23-53.64-43.36h-7.48l-2.92,2.06-16.65,13.23v160.15l-34.4,27.86-9.04-7.28v47.7l-57.78,46.67-48.95-39.54V49.24h89.4l47.99-38.81,103.53,83.71L353.5,10.44l48.06,38.81h89.33v400.78Z"/>
        <path class="cls-3" d="M401.56,49.24l-48.06-38.81-103.53,83.71L146.43,10.44l-47.99,38.81H9.04v400.78l48.95,39.54,57.78-46.67v-47.7l-9.11-7.35-10.33-8.38V122h56.22l29.98-24.25,67.44,54.61,67.17-54.61,29.98,24.25h56.49v257.17l-10.26,8.31-9.11,7.42v47.99l57.78,46.67,48.88-39.54V49.24h-89.33ZM481.78,447.01l-39.77,32.19-48.67-39.39v-41.89l19.37-15.65V114.66h-61.86l-33.72-27.27-67.17,54.54-67.44-54.54-33.72,27.27h-61.52v267.82l19.37,15.73v41.6l-48.67,39.39-39.84-32.19V56.59h84.02l44.26-35.79,103.53,83.79,103.53-83.79,44.26,35.79h84.02v390.42Z"/>
        <polygon class="cls-3" points="403.6 122 403.6 379.17 393.34 387.48 384.23 394.9 384.23 157.06 383.14 156.18 361.39 138.62 357.58 135.53 350.03 135.53 347.11 137.73 346.02 138.62 265.13 204.03 249.97 191.53 234.81 204.03 153.98 138.62 150.17 135.53 142.69 135.53 139.7 137.73 138.61 138.62 116.86 156.18 115.77 157.06 115.77 395.19 106.66 387.84 96.33 379.46 96.33 122 152.55 122 182.53 97.75 249.97 152.36 317.13 97.75 347.11 122 403.6 122"/>
        <polygon class="cls-3" points="481.78 56.59 481.78 447.01 442.01 479.2 393.34 439.81 393.34 397.91 412.71 382.26 412.71 114.66 350.85 114.66 317.13 87.39 249.97 141.92 182.53 87.39 148.81 114.66 87.29 114.66 87.29 382.48 106.66 398.21 106.66 439.81 57.99 479.2 18.15 447.01 18.15 56.59 102.18 56.59 146.43 20.8 249.97 104.59 353.5 20.8 397.76 56.59 481.78 56.59"/>
        <polygon class="cls-1" points="403.6 122 403.6 379.17 393.34 387.48 393.34 154.05 383.14 145.82 374.3 138.62 361.39 128.18 346.57 128.18 341.06 132.22 335.89 136.41 265.19 193.59 249.97 181.02 234.74 193.59 163.97 136.26 153.98 128.18 139.16 128.18 133.65 132.22 125.76 138.62 116.86 145.82 106.66 154.05 106.66 387.84 96.33 379.46 96.33 122 152.55 122 182.53 97.75 249.97 152.36 317.13 97.75 347.11 122 403.6 122"/>
        <polygon class="cls-1" points="481.78 56.59 481.78 447.01 442.01 479.2 393.34 439.81 393.34 397.91 412.71 382.26 412.71 114.66 350.85 114.66 317.13 87.39 249.97 141.92 182.53 87.39 148.81 114.66 87.29 114.66 87.29 382.48 106.66 398.21 106.66 439.81 57.99 479.2 18.15 447.01 18.15 56.59 102.18 56.59 146.43 20.8 249.97 104.59 353.5 20.8 397.76 56.59 481.78 56.59"/>
        <polygon class="cls-5" points="403.6 122 403.6 379.17 393.34 387.48 384.23 394.9 375.12 402.25 374.85 402.47 340.45 374.61 340.45 214.46 321.14 199.18 313.66 199.18 310.74 201.31 259.82 242.47 250.1 234.31 239.9 242.54 186.27 199.18 178.79 199.18 175.87 201.23 159.21 214.46 159.21 374.61 124.81 402.47 115.77 395.19 106.66 387.84 96.33 379.46 96.33 122 152.55 122 182.53 97.75 249.97 152.36 317.13 97.75 347.11 122 403.6 122"/>
        <polygon class="cls-2" points="403.6 122 403.6 379.17 393.34 387.48 384.23 394.9 375.12 402.25 374.85 402.47 340.45 374.61 340.45 214.46 321.14 199.18 313.66 199.18 310.74 201.31 259.82 242.47 250.1 234.31 239.9 242.54 186.27 199.18 178.79 199.18 175.87 201.23 159.21 214.46 159.21 374.61 124.81 402.47 115.77 395.19 106.66 387.84 96.33 379.46 96.33 122 152.55 122 182.53 97.75 249.97 152.36 317.13 97.75 347.11 122 403.6 122"/>
        <polygon class="cls-4" points="360.92 367.79 360.92 200.48 329.52 175.59 305.19 175.59 296.22 182.6 260.05 211.84 250.28 203.71 239.92 212.1 194.78 175.59 170.45 175.59 161.52 182.42 138.74 200.48 138.74 367.79 124.84 379.04 116.84 372.56 116.84 138.6 161.06 138.6 182.53 121.21 250.02 175.84 317.18 121.26 338.61 138.6 383.11 138.6 383.11 372.33 374.82 379.04 360.92 367.79"/>
      </g>
    </g>
  </g>
</svg>