<?xml version="1.0" encoding="UTF-8"?>
<svg xmlns="http://www.w3.org/2000/svg" version="1.1" xmlns:xlink="http://www.w3.org/1999/xlink" viewBox="0 0 300 130">
  <defs>
    <style>
      .cls-1 {
        fill: #231f20;
      }

      .cls-2 {
        fill: #8b5e3c;
      }

      .cls-3 {
        fill: #754c29;
      }

      .cls-4 {
        fill: url(#linear-gradient);
      }
    </style>
    <linearGradient id="linear-gradient" x1="12.39" y1="83" x2="43.52" y2="72.89" gradientUnits="userSpaceOnUse">
      <stop offset=".41" stop-color="#8b5e3c"/>
      <stop offset=".41" stop-color="#895c3a"/>
      <stop offset=".42" stop-color="#7d5330"/>
      <stop offset=".42" stop-color="#764d2a"/>
      <stop offset=".43" stop-color="#754c29"/>
    </linearGradient>
  </defs>
  <!-- Generator: Adobe Illustrator 28.6.0, SVG Export Plug-In . SVG Version: 1.2.0 Build 709)  -->
  <g>
    <g id="Layer_1">
      <g>
        <g>
          <polygon class="cls-2" points="3.9 129.5 1.41 35.31 13.73 35.31 15.75 129.5 3.9 129.5"/>
          <path class="cls-1" d="M13.24,35.81l2,93.19H4.39L1.93,35.81h11.31M14.22,34.81H.9l2.52,95.19h12.84l-2.04-95.19h0Z"/>
        </g>
        <g>
          <polygon class="cls-2" points="284.42 129.5 286.44 35.31 298.76 35.31 296.27 129.5 284.42 129.5"/>
          <path class="cls-1" d="M298.24,35.81l-2.47,93.19h-10.84l2-93.19h11.31M299.27,34.81h-13.32l-2.04,95.19h12.84l2.52-95.19h0Z"/>
        </g>
        <g>
          <polygon class="cls-4" points="14.73 35.31 43.06 35.31 44.03 91.82 16.73 128.53 14.73 35.31"/>
          <path class="cls-1" d="M42.57,35.81l.96,55.86-26.33,35.4-1.96-91.26h27.33M43.55,34.81H14.22l2.04,95.19,28.27-38.01-.98-57.18h0Z"/>
        </g>
        <g>
          <polygon class="cls-3" points="256.13 91.82 257.1 35.31 285.43 35.31 283.43 128.53 256.13 91.82"/>
          <path class="cls-1" d="M284.92,35.81l-1.96,91.26-26.33-35.4.96-55.86h27.33M285.94,34.81h-29.34l-.98,57.18,28.27,38.01,2.04-95.19h0Z"/>
        </g>
        <g>
          <polygon class="cls-2" points="1.39 34.31 1.27 24.44 298.77 24.44 298.77 34.31 1.39 34.31"/>
          <path class="cls-1" d="M298.27,24.94v8.87H1.89l-.11-8.87h296.5M299.27,23.94H.76l.14,10.87h298.37v-10.87h0Z"/>
        </g>
        <g>
          <path class="cls-2" d="M.91,23.44c-.04-.14-.03-.39.03-.47L30.74.5h238.53l29.81,22.48c.05.07.06.32.01.46H.91Z"/>
          <path class="cls-1" d="M31.1.85h0,0M269.1,1l29.1,21.94H1.81L30.9,1h238.19M269.36,0H30.64s-.1.02-.14.05L.62,22.58c-.39.29-.27,1.36.14,1.36h298.47c.42,0,.53-1.06.14-1.36L269.5.05S269.41,0,269.36,0h0Z"/>
        </g>
      </g>
    </g>
  </g>
</svg>