<?xml version="1.0" encoding="UTF-8"?><svg id="a" xmlns="http://www.w3.org/2000/svg" xmlns:xlink="http://www.w3.org/1999/xlink" viewBox="0 0 306 270.71"><defs><linearGradient id="b" x1="-62.71" y1="95.59" x2="414.62" y2="101.81" gradientUnits="userSpaceOnUse"><stop offset="0" stop-color="#3593d1"/><stop offset=".05" stop-color="#2c8fce"/><stop offset=".22" stop-color="#1485c5"/><stop offset=".37" stop-color="#057fc0"/><stop offset=".5" stop-color="#007dbf"/><stop offset=".61" stop-color="#007abb"/><stop offset=".69" stop-color="#0070b1"/><stop offset=".77" stop-color="#0060a0"/><stop offset=".84" stop-color="#004a89"/><stop offset=".91" stop-color="#002d6a"/><stop offset=".98" stop-color="#000a45"/><stop offset="1" stop-color="#00003a"/></linearGradient><linearGradient id="c" x1="-62.71" y1="95.59" x2="414.62" y2="101.81" xlink:href="#b"/><linearGradient id="d" x1="-63.19" y1="132.54" x2="414.14" y2="138.76" xlink:href="#b"/><linearGradient id="e" x1="-63.19" y1="132.54" x2="414.14" y2="138.76" xlink:href="#b"/><linearGradient id="f" x1="-63.75" y1="175.47" x2="413.58" y2="181.7" xlink:href="#b"/><linearGradient id="g" x1="-63.75" y1="175.47" x2="413.58" y2="181.7" xlink:href="#b"/><linearGradient id="h" x1="253.62" y1="-5.51" x2="330.62" y2="290.49" xlink:href="#b"/><linearGradient id="i" x1="52.76" y1="-14.25" x2="246.1" y2="298.64" gradientUnits="userSpaceOnUse"><stop offset="0" stop-color="#3593d1"/><stop offset=".05" stop-color="#2c8fce"/><stop offset=".22" stop-color="#1485c5"/><stop offset=".37" stop-color="#057fc0"/><stop offset=".5" stop-color="#007dbf"/><stop offset=".61" stop-color="#007abb"/><stop offset=".69" stop-color="#0070b1"/><stop offset=".77" stop-color="#0060a0"/><stop offset=".84" stop-color="#004a89"/><stop offset=".91" stop-color="#002d6a"/><stop offset=".98" stop-color="#000a45"/><stop offset="1" stop-color="#00003a"/></linearGradient><linearGradient id="j" x1="78.68" y1="209.67" x2="134.68" y2="153.67" gradientUnits="userSpaceOnUse"><stop offset="0" stop-color="#3593d1"/><stop offset=".11" stop-color="#2b78b5"/><stop offset=".31" stop-color="#1c4d89"/><stop offset=".51" stop-color="#0f2b67"/><stop offset=".69" stop-color="#07134e"/><stop offset=".86" stop-color="#01053f"/><stop offset="1" stop-color="#00003a"/></linearGradient><linearGradient id="k" x1="105.35" y1="248.77" x2="-17.31" y2="115.43" xlink:href="#j"/><linearGradient id="l" x1="170.23" y1="69.97" x2="260.39" y2="69.97" xlink:href="#j"/></defs><path d="M288.18,200.12c-12.72,0-30.79-9.53-30.79-18.42v-116.39l-54.92,54.93c-.56.56-1.33.88-2.12.88s-1.56-.32-2.12-.88l-30.12-30.12c-1.17-1.17-1.17-3.07,0-4.24L240.63,13.35C249.24,4.74,260.69,0,272.88,0c7.18,0,14.33,1.71,20.7,4.95.08.04.17.09.25.14,7.52,3.9,12.18,11.56,12.18,20.04v156.26c0,11.9-6.5,18.73-17.82,18.73Z" fill="url(#b)"/><path d="M303,25.13v156.26c0,29.42-42.61,10.42-42.61.31V58.07l-60.04,60.05-30.12-30.12,24.25-24.25,41.93-41.94,6.34-6.34c13.38-13.38,33.46-15.99,49.46-7.85l.11.07c6.55,3.34,10.68,10.08,10.68,17.44Z" fill="url(#c)"/><path d="M272.87,270.71c-12.18,0-23.63-4.74-32.24-13.35l-123.68-123.68L48.6,65.32v171.95c0,15.89-12.93,28.82-28.82,28.82H3c-1.66,0-3-1.34-3-3V25.26c0-4.19,1.15-8.3,3.34-11.89,2.19-3.59,5.32-6.49,9.05-8.41C18.77,1.72,25.93,0,33.11,0c12.18,0,23.64,4.74,32.25,13.35l85.81,85.81,3.84,3.85c.07.06.14.13.2.2l29.88,29.88c.05.04.1.09.15.14l54.08,54.09,16.06,16.02c12.75,12.75,23.64,19.21,32.39,19.21h0c4.83,0,9.1-2.01,13.07-6.15.58-.6,1.36-.92,2.17-.92.38,0,.75.07,1.12.22,1.14.46,1.88,1.56,1.88,2.78v26.76c0,8.67-4.66,16.47-12.17,20.38-.08.05-.16.1-.24.14-6.36,3.24-13.53,4.96-20.71,4.96Z" fill="url(#d)"/><path d="M303,218.47v26.76c0,7.44-4.05,14.38-10.67,17.78-.04.02-.07.04-.11.07-16,8.15-36.09,5.54-49.47-7.84l-83.26-83.26-6.5-6.5-30.12-30.12-3.8-3.8L45.6,58.07v179.19c0,14.26-11.56,25.82-25.82,25.82H3V25.26c0-3.72,1.04-7.27,2.9-10.33,1.87-3.06,4.55-5.6,7.86-7.3C29.77-.53,49.86,2.09,63.24,15.47l85.81,85.81,3.94,3.95h.01s30.11,30.12,30.11,30.12h0l6.34,6.34,47.74,47.75,16.06,16.02c27.32,27.32,41.57,21.54,49.74,13.01Z" fill="url(#e)"/><path d="M106.87,205.78c-6.49,0-12.59-2.53-17.18-7.12-4.59-4.57-7.13-10.67-7.13-17.18s2.53-12.6,7.13-17.18l13.83-13.83c.59-.59,1.35-.88,2.12-.88s1.54.29,2.12.88l30.12,30.12c.56.56.88,1.33.88,2.12s-.32,1.56-.88,2.12l-13.84,13.83c-4.58,4.59-10.68,7.12-17.18,7.12Z" fill="url(#f)"/><path d="M135.76,182.71l-13.84,13.83c-8.31,8.32-21.8,8.32-30.11,0-4.17-4.15-6.25-9.61-6.25-15.06s2.08-10.9,6.25-15.06l13.83-13.83,30.12,30.12Z" fill="url(#g)"/><path d="M292.32,7.69l-.12-.06c-16-8.15-36.07-5.54-49.46,7.85l-6.34,6.34c14.1,6,23.98,19.97,23.98,36.26v123.62c0,10.11,42.6,29.11,42.6-.31V25.14c0-7.36-4.12-14.1-10.67-17.44Z" fill="url(#h)"/><path d="M253.26,205.46l-16.06-16.02-47.74-47.75-6.34-6.34h0l-30.11-30.11h0s-.01,0-.01,0l-3.94-3.95L63.24,15.47C49.86,2.09,29.77-.53,13.76,7.63c-3.31,1.7-5.99,4.24-7.86,7.3-1.86,3.06-2.9,6.61-2.9,10.33v52.21c0-14.17,11.48-25.65,25.64-25.65,6.5,0,12.43,2.42,16.96,6.41v-.16l73.47,73.49,3.8,3.8,30.12,30.12,6.5,6.5,83.26,83.26c13.38,13.38,33.47,15.99,49.47,7.84.04-.03.07-.05.11-.07,6.62-3.4,10.67-10.34,10.67-17.78v-26.76c-8.17,8.52-22.42,14.31-49.74-13.02Z" fill="url(#i)"/><path d="M135.76,182.71l-13.83,13.83c-8.32,8.32-21.8,8.32-30.12,0-4.16-4.15-6.24-9.61-6.24-15.06s2.08-10.91,6.24-15.06l13.83-13.83,30.12,30.12Z" fill="url(#j)"/><path d="M45.6,58.24v179.03c0,14.26-11.56,25.82-25.82,25.82H3V77.47c0-14.16,11.48-25.65,25.65-25.65,6.5,0,12.43,2.42,16.95,6.41Z" fill="url(#k)"/><path d="M260.39,58.07l-60.04,60.05-30.12-30.12,24.25-24.25,41.93-41.94c14.1,6,23.98,19.97,23.98,36.26Z" fill="url(#l)"/></svg>